<svg xmlns="http://www.w3.org/2000/svg" xmlns:xlink="http://www.w3.org/1999/xlink" viewBox="0 0 571.5 420.16"><defs><style>.cls-1,.cls-4{fill:none;}.cls-2{fill:#fde3e2;}.cls-3{clip-path:url(#clip-path);}.cls-4{stroke:#f8b2b6;stroke-miterlimit:10;stroke-width:0.5px;}.cls-5{fill:#ed2024;}.cls-6{fill:#fff;}.cls-14,.cls-18,.cls-7,.cls-9{font-size:10.98px;font-family:MyriadPro-Semibold, Myriad Pro;font-weight:600;}.cls-14,.cls-17,.cls-18,.cls-7,.cls-9{fill:#231f20;}.cls-10,.cls-7{letter-spacing:0.06em;}.cls-8{letter-spacing:0.06em;}.cls-9{letter-spacing:0.07em;}.cls-11{letter-spacing:0.06em;}.cls-12{letter-spacing:0.03em;}.cls-13,.cls-14{letter-spacing:0.06em;}.cls-15{letter-spacing:-0.01em;}.cls-16{letter-spacing:0.06em;}.cls-18{letter-spacing:0.04em;}.cls-19{letter-spacing:-0.02em;}.cls-20{fill:#036b66;}.cls-21{fill:#056d68;}.cls-22{fill:#e21d37;}</style><clipPath id="clip-path" transform="translate(39.88 77.5)"><path class="cls-1" d="M498.35,0H367a1.65,1.65,0,0,1-1.65,1.65A1.65,1.65,0,0,1,363.71,0H4.39A4.41,4.41,0,0,0,0,4.39V212.5a4.41,4.41,0,0,0,4.39,4.4H363.71a1.65,1.65,0,1,1,3.3,0H498.35a4.41,4.41,0,0,0,4.4-4.4V4.39A4.41,4.41,0,0,0,498.35,0Zm-133,212a1.65,1.65,0,1,1,1.65-1.64A1.64,1.64,0,0,1,365.36,212Zm0-6.57a1.65,1.65,0,1,1,1.65-1.65A1.65,1.65,0,0,1,365.36,205.4Zm0-6.57a1.65,1.65,0,1,1,1.65-1.65A1.65,1.65,0,0,1,365.36,198.83Zm0-6.58a1.65,1.65,0,1,1,1.65-1.64A1.64,1.64,0,0,1,365.36,192.25Zm0-6.57A1.65,1.65,0,1,1,367,184,1.64,1.64,0,0,1,365.36,185.68Zm0-6.57a1.65,1.65,0,1,1,1.65-1.65A1.65,1.65,0,0,1,365.36,179.11Zm0-6.57a1.65,1.65,0,1,1,1.65-1.65A1.65,1.65,0,0,1,365.36,172.54Zm0-6.58a1.65,1.65,0,1,1,1.65-1.64A1.64,1.64,0,0,1,365.36,166Zm0-6.57a1.65,1.65,0,1,1,1.65-1.65A1.65,1.65,0,0,1,365.36,159.39Zm0-6.57a1.65,1.65,0,1,1,1.65-1.65A1.65,1.65,0,0,1,365.36,152.82Zm0-6.57A1.65,1.65,0,1,1,367,144.6,1.65,1.65,0,0,1,365.36,146.25Zm0-6.58A1.65,1.65,0,1,1,367,138,1.64,1.64,0,0,1,365.36,139.67Zm0-6.57a1.65,1.65,0,1,1,1.65-1.65A1.65,1.65,0,0,1,365.36,133.1Zm0-6.57a1.65,1.65,0,1,1,1.65-1.65A1.65,1.65,0,0,1,365.36,126.53Zm0-6.57a1.65,1.65,0,1,1,1.65-1.65A1.65,1.65,0,0,1,365.36,120Zm0-6.58a1.65,1.65,0,1,1,1.65-1.64A1.64,1.64,0,0,1,365.36,113.38Zm0-6.57a1.65,1.65,0,1,1,1.65-1.65A1.65,1.65,0,0,1,365.36,106.81Zm0-6.57A1.65,1.65,0,1,1,367,98.59,1.65,1.65,0,0,1,365.36,100.24Zm0-6.58A1.65,1.65,0,1,1,367,92,1.64,1.64,0,0,1,365.36,93.66Zm0-6.57A1.65,1.65,0,1,1,367,85.45,1.64,1.64,0,0,1,365.36,87.09Zm0-6.57A1.65,1.65,0,1,1,367,78.87,1.65,1.65,0,0,1,365.36,80.52Zm0-6.57A1.65,1.65,0,1,1,367,72.3,1.65,1.65,0,0,1,365.36,74Zm0-6.58A1.65,1.65,0,1,1,367,65.73,1.64,1.64,0,0,1,365.36,67.37Zm0-6.57A1.65,1.65,0,1,1,367,59.15,1.65,1.65,0,0,1,365.36,60.8Zm0-6.57A1.65,1.65,0,1,1,367,52.58,1.65,1.65,0,0,1,365.36,54.23Zm0-6.57A1.65,1.65,0,1,1,367,46,1.65,1.65,0,0,1,365.36,47.66Zm0-6.58A1.65,1.65,0,1,1,367,39.44,1.64,1.64,0,0,1,365.36,41.08Zm0-6.57A1.65,1.65,0,1,1,367,32.86,1.65,1.65,0,0,1,365.36,34.51Zm0-6.57A1.65,1.65,0,1,1,367,26.29,1.65,1.65,0,0,1,365.36,27.94Zm0-6.57A1.65,1.65,0,1,1,367,19.72,1.65,1.65,0,0,1,365.36,21.37Zm0-6.58A1.65,1.65,0,1,1,367,13.15,1.64,1.64,0,0,1,365.36,14.79Zm0-6.57A1.65,1.65,0,1,1,367,6.57,1.65,1.65,0,0,1,365.36,8.22Z"/></clipPath></defs><g id="Livello_2" data-name="Livello 2"><g id="tickets"><path class="cls-2" d="M498.35,0H367a1.65,1.65,0,0,1-1.65,1.65A1.65,1.65,0,0,1,363.71,0H4.39A4.41,4.41,0,0,0,0,4.39V212.5a4.41,4.41,0,0,0,4.39,4.4H363.71a1.65,1.65,0,1,1,3.3,0H498.35a4.41,4.41,0,0,0,4.4-4.4V4.39A4.41,4.41,0,0,0,498.35,0Zm-133,212a1.65,1.65,0,1,1,1.65-1.64A1.64,1.64,0,0,1,365.36,212Zm0-6.57a1.65,1.65,0,1,1,1.65-1.65A1.65,1.65,0,0,1,365.36,205.4Zm0-6.57a1.65,1.65,0,1,1,1.65-1.65A1.65,1.65,0,0,1,365.36,198.83Zm0-6.58a1.65,1.65,0,1,1,1.65-1.64A1.64,1.64,0,0,1,365.36,192.25Zm0-6.57A1.65,1.65,0,1,1,367,184,1.64,1.64,0,0,1,365.36,185.68Zm0-6.57a1.65,1.65,0,1,1,1.65-1.65A1.65,1.65,0,0,1,365.36,179.11Zm0-6.57a1.65,1.65,0,1,1,1.65-1.65A1.65,1.65,0,0,1,365.36,172.54Zm0-6.58a1.65,1.65,0,1,1,1.65-1.64A1.64,1.64,0,0,1,365.36,166Zm0-6.57a1.65,1.65,0,1,1,1.65-1.65A1.65,1.65,0,0,1,365.36,159.39Zm0-6.57a1.65,1.65,0,1,1,1.65-1.65A1.65,1.65,0,0,1,365.36,152.82Zm0-6.57A1.65,1.65,0,1,1,367,144.6,1.65,1.65,0,0,1,365.36,146.25Zm0-6.58A1.65,1.65,0,1,1,367,138,1.64,1.64,0,0,1,365.36,139.67Zm0-6.57a1.65,1.65,0,1,1,1.65-1.65A1.65,1.65,0,0,1,365.36,133.1Zm0-6.57a1.65,1.65,0,1,1,1.65-1.65A1.65,1.65,0,0,1,365.36,126.53Zm0-6.57a1.65,1.65,0,1,1,1.65-1.65A1.65,1.65,0,0,1,365.36,120Zm0-6.58a1.65,1.65,0,1,1,1.65-1.64A1.64,1.64,0,0,1,365.36,113.38Zm0-6.57a1.65,1.65,0,1,1,1.65-1.65A1.65,1.65,0,0,1,365.36,106.81Zm0-6.57A1.65,1.65,0,1,1,367,98.59,1.65,1.65,0,0,1,365.36,100.24Zm0-6.58A1.65,1.65,0,1,1,367,92,1.64,1.64,0,0,1,365.36,93.66Zm0-6.57A1.65,1.65,0,1,1,367,85.45,1.64,1.64,0,0,1,365.36,87.09Zm0-6.57A1.65,1.65,0,1,1,367,78.87,1.65,1.65,0,0,1,365.36,80.52Zm0-6.57A1.65,1.65,0,1,1,367,72.3,1.65,1.65,0,0,1,365.36,74Zm0-6.58A1.65,1.65,0,1,1,367,65.73,1.64,1.64,0,0,1,365.36,67.37Zm0-6.57A1.65,1.65,0,1,1,367,59.15,1.65,1.65,0,0,1,365.36,60.8Zm0-6.57A1.65,1.65,0,1,1,367,52.58,1.65,1.65,0,0,1,365.36,54.23Zm0-6.57A1.65,1.65,0,1,1,367,46,1.65,1.65,0,0,1,365.36,47.66Zm0-6.58A1.65,1.65,0,1,1,367,39.44,1.64,1.64,0,0,1,365.36,41.08Zm0-6.57A1.65,1.65,0,1,1,367,32.86,1.65,1.65,0,0,1,365.36,34.51Zm0-6.57A1.65,1.65,0,1,1,367,26.29,1.65,1.65,0,0,1,365.36,27.94Zm0-6.57A1.65,1.65,0,1,1,367,19.72,1.65,1.65,0,0,1,365.36,21.37Zm0-6.58A1.65,1.65,0,1,1,367,13.15,1.64,1.64,0,0,1,365.36,14.79Zm0-6.57A1.65,1.65,0,1,1,367,6.57,1.65,1.65,0,0,1,365.36,8.22Z" transform="translate(39.88 77.5)"/><g class="cls-3"><path class="cls-4" d="M-39.73,136.49C172.57-11.59,360,315.38,508.74-77.41" transform="translate(39.88 77.5)"/><path class="cls-4" d="M-39.73,129.46C177.36-13.14,347.65,311.31,508.74-63.86" transform="translate(39.88 77.5)"/><path class="cls-4" d="M-39.73,122.43C182.14-14.69,335.34,307.24,508.74-50.31" transform="translate(39.88 77.5)"/><path class="cls-4" d="M-39.73,115.4C186.93-16.23,323,303.17,508.74-36.76" transform="translate(39.88 77.5)"/><path class="cls-4" d="M-39.73,108.37C191.71-17.78,310.71,299.1,508.74-23.21" transform="translate(39.88 77.5)"/><path class="cls-4" d="M-39.73,101.34C196.5-19.32,298.4,295,508.74-9.66" transform="translate(39.88 77.5)"/><path class="cls-4" d="M-39.73,94.31C201.28-20.87,286.08,291,508.74,3.89" transform="translate(39.88 77.5)"/><path class="cls-4" d="M-39.73,87.28c245.8-109.7,313.5,199.61,548.47-69.84" transform="translate(39.88 77.5)"/><path class="cls-4" d="M-39.73,80.25C210.85-24,261.45,282.82,508.74,31" transform="translate(39.88 77.5)"/><path class="cls-4" d="M-39.73,73.22C215.64-25.51,249.14,278.75,508.74,44.54" transform="translate(39.88 77.5)"/><path class="cls-4" d="M-39.73,66.19C220.43-27,236.83,274.68,508.74,58.09" transform="translate(39.88 77.5)"/><path class="cls-4" d="M-39.73,59.16C225.21-28.6,224.51,270.61,508.74,71.64" transform="translate(39.88 77.5)"/><path class="cls-4" d="M-39.73,52.13C230-30.15,212.2,266.54,508.74,85.19" transform="translate(39.88 77.5)"/><path class="cls-4" d="M-39.73,45.1C234.78-31.69,199.89,262.47,508.74,98.75" transform="translate(39.88 77.5)"/><path class="cls-4" d="M-39.73,38.06c279.3-71.3,227.3,220.34,548.47,74.24" transform="translate(39.88 77.5)"/><path class="cls-4" d="M-39.73,31c284.08-65.81,215,223.3,548.47,94.82" transform="translate(39.88 77.5)"/><path class="cls-4" d="M-39.73,24C249.14-36.33,162.94,250.26,508.74,139.4" transform="translate(39.88 77.5)"/><path class="cls-4" d="M-39.73,17C253.93-37.87,150.63,246.19,508.74,153" transform="translate(39.88 77.5)"/><path class="cls-4" d="M-17,142.51C327.86,71.89,283.07,319.67,531.48,153" transform="translate(39.88 77.5)"/><path class="cls-4" d="M-17,144.07C324.85,74.38,278,322.77,531.48,164" transform="translate(39.88 77.5)"/><path class="cls-4" d="M-17,145.63C321.84,76.87,272.85,325.88,531.48,175" transform="translate(39.88 77.5)"/><path class="cls-4" d="M-17,147.2C318.83,79.36,267.74,329,531.48,185.93" transform="translate(39.88 77.5)"/><path class="cls-4" d="M-17,148.76C315.82,81.85,262.63,332.08,531.48,196.9" transform="translate(39.88 77.5)"/><path class="cls-4" d="M-17,150.32c329.79-66,274.51,184.86,548.47,57.55" transform="translate(39.88 77.5)"/><path class="cls-4" d="M-17,151.88c326.78-65,269.41,186.4,548.47,67" transform="translate(39.88 77.5)"/><path class="cls-4" d="M-17,153.45c323.77-64.13,264.3,187.94,548.47,76.36" transform="translate(39.88 77.5)"/><path class="cls-4" d="M-17,155c320.76-63.2,259.19,189.48,548.47,85.77" transform="translate(39.88 77.5)"/><path class="cls-4" d="M-17,156.57c317.75-62.27,254.08,191,548.47,95.17" transform="translate(39.88 77.5)"/><path class="cls-4" d="M-17,158.14C297.75,96.8,232,350.69,531.48,262.71" transform="translate(39.88 77.5)"/><path class="cls-4" d="M-17,159.7c311.73-60.41,243.87,194.1,548.47,114" transform="translate(39.88 77.5)"/><path class="cls-4" d="M-17,161.26C291.72,101.78,221.77,356.9,531.48,284.65" transform="translate(39.88 77.5)"/><path class="cls-4" d="M-17,162.82C288.71,104.27,216.66,360,531.48,295.62" transform="translate(39.88 77.5)"/><path class="cls-4" d="M-17,164.39C285.7,106.76,211.55,363.1,531.48,306.59" transform="translate(39.88 77.5)"/><path class="cls-4" d="M-17,166c299.68-56.7,223.43,200.25,548.47,151.61" transform="translate(39.88 77.5)"/><path class="cls-4" d="M-17,167.51c296.67-55.77,218.32,201.8,548.47,161" transform="translate(39.88 77.5)"/><path class="cls-4" d="M-17,169.08C276.67,114.23,196.23,372.41,531.48,339.5" transform="translate(39.88 77.5)"/></g><path class="cls-5" d="M498.35,0H367a1.65,1.65,0,0,1-1.65,1.65A1.65,1.65,0,0,1,363.71,0H4.39A4.41,4.41,0,0,0,0,4.39V46H363.71v0a1.65,1.65,0,1,1,3.3,0v0H502.75V4.39A4.41,4.41,0,0,0,498.35,0Zm-133,41.08A1.65,1.65,0,1,1,367,39.44,1.64,1.64,0,0,1,365.36,41.08Zm0-6.57A1.65,1.65,0,1,1,367,32.86,1.65,1.65,0,0,1,365.36,34.51Zm0-6.57A1.65,1.65,0,1,1,367,26.29,1.65,1.65,0,0,1,365.36,27.94Zm0-6.57A1.65,1.65,0,1,1,367,19.72,1.65,1.65,0,0,1,365.36,21.37Zm0-6.58A1.65,1.65,0,1,1,367,13.15,1.64,1.64,0,0,1,365.36,14.79Zm0-6.57A1.65,1.65,0,1,1,367,6.57,1.65,1.65,0,0,1,365.36,8.22Z" transform="translate(39.88 77.5)"/><path class="cls-6" d="M87.93,16.05c-2.31.19-3.22,2.57-3.68,4.51h-.61l.1-5H98.21l.1,5H97.7c-.46-1.94-1.37-4.32-3.68-4.51V28.68h1.8v.54H86.11v-.54h1.82Z" transform="translate(39.88 77.5)"/><path class="cls-6" d="M104.26,16.05H102.8v-.54H113c4.06,0,5.52,1.6,5.52,3.32,0,2.18-2.18,2.89-4,3V22a3.82,3.82,0,0,1,3.78,4.15c0,1,0,1.88.53,1.88.38,0,.7-.47.89-.75l.54.3a4.34,4.34,0,0,1-4,1.89c-2.55,0-4.11-1.2-4.13-3.83,0-3.31-.34-3.56-1.36-3.56h-.7v6.56h1.66v.54h-9.07v-.54h1.52Zm5.89,5.47h.76c.92,0,1.4-.25,1.4-2.63V17.67c0-.79-.48-1.62-1.27-1.62h-.89Z" transform="translate(39.88 77.5)"/><path class="cls-6" d="M124.37,29.22v-.54h.45c.64,0,1.11-1.16,1.43-2l4.07-11.16h4.13l4.89,13.17h1.08v.54h-8.78v-.54h1.43l-1.41-4h-4l-.79,2.11c-.55,1.49.24,1.92.75,1.92h.53v.54Zm5.28-10.13-1.8,5h3.62Z" transform="translate(39.88 77.5)"/><path class="cls-6" d="M145,29.22v-.54h1.5V16.05H145v-.54h9.14v.54h-1.51V28.68h1.51v.54Z" transform="translate(39.88 77.5)"/><path class="cls-6" d="M158.53,29.22v-.54h.5c.85,0,1.1-1,1.1-1.88V17.09c-.37-.49-.69-1.06-1.3-1.06h-.3v-.52h7.52l5.36,7.34V17c0-.56-.62-1-1.35-1h-.39v-.54h4.07v.54h-.59c-1,0-1,.77-1,2.39V29.22h-3.32l-8-11V26.8c0,.91.19,1.88,1.14,1.88h.64v.54Z" transform="translate(39.88 77.5)"/><path class="cls-6" d="M192.94,16.05c-2.32.19-3.23,2.57-3.68,4.51h-.61l.09-5h14.48l.1,5h-.61c-.46-1.94-1.37-4.32-3.68-4.51V28.68h1.8v.54h-9.71v-.54h1.82Z" transform="translate(39.88 77.5)"/><path class="cls-6" d="M208.08,29.22v-.54h1.5V16.05h-1.5v-.54h9.14v.54h-1.51V28.68h1.51v.54Z" transform="translate(39.88 77.5)"/><path class="cls-6" d="M235,20.08h-.63c-.51-1.68-1.78-3.95-3.8-3.95-1.46,0-2.19.35-2.19,4.7v3.82c0,3.24,1,3.87,2.41,3.87,2.18,0,3.48-2,3.84-3.91h.61c-.36,3.2-2.69,4.9-5.81,4.9-4.37,0-7.42-2.82-7.42-7.25a7.15,7.15,0,0,1,9.85-6.51,3,3,0,0,0,1,.34,1.16,1.16,0,0,0,.59-.26l1.07-.61H235Z" transform="translate(39.88 77.5)"/><path class="cls-6" d="M239.81,29.22v-.54h1.53V16.05h-1.53v-.54H249v.54h-1.7v6.44l4.7-4.72c1.13-1.13.42-1.72-1.06-1.72h-.62v-.54h6.23v.54h-.65a3.68,3.68,0,0,0-2.55,1.32l-1.54,1.54,5.65,9.77h.87v.54h-8.94v-.54h1.41l-3.46-6.11h0v6.11h1.36v.54Z" transform="translate(39.88 77.5)"/><path class="cls-6" d="M262.49,29.22v-.54H264V16.05h-1.47v-.54h13.27l.1,4.81h-.65c-.56-2.18-1.9-4.27-4.06-4.27H270v6h.33c.62,0,2-.65,2.18-2.69h.65v6h-.65c-.18-2.16-1.56-2.81-2.18-2.81H270v6.11h1.34c1.5,0,3.07-1.1,4.15-4.68h.6l-.1,5.22Z" transform="translate(39.88 77.5)"/><path class="cls-6" d="M285.19,16.05c-2.31.19-3.22,2.57-3.68,4.51h-.61l.1-5h14.47l.1,5H295c-.46-1.94-1.37-4.32-3.68-4.51V28.68h1.8v.54h-9.71v-.54h1.82Z" transform="translate(39.88 77.5)"/><path class="cls-6" d="M402.09,10.63c-1.8.15-2.51,2-2.86,3.5h-.48l.08-3.92h11.25l.08,3.92h-.48c-.35-1.5-1.06-3.35-2.86-3.5v9.83h1.4v.41h-7.55v-.41h1.42Z" transform="translate(39.88 77.5)"/><path class="cls-6" d="M414.79,10.63h-1.14v-.42h8c3.15,0,4.29,1.25,4.29,2.58,0,1.7-1.69,2.25-3.09,2.34v.16a3,3,0,0,1,2.94,3.23c0,.81,0,1.46.41,1.46s.54-.37.7-.59l.41.23a3.36,3.36,0,0,1-3.07,1.48c-2,0-3.2-.94-3.22-3,0-2.57-.26-2.77-1.06-2.77h-.54v5.11h1.29v.41H413.6v-.41h1.19Zm4.58,4.26H420c.72,0,1.09-.2,1.09-2.05v-.95c0-.62-.37-1.26-1-1.26h-.69Z" transform="translate(39.88 77.5)"/><path class="cls-6" d="M430.43,20.87v-.41h.35c.49,0,.86-.91,1.11-1.57l3.17-8.68h3.21l3.8,10.25h.85v.41h-6.83v-.41h1.1l-1.09-3.14H433L432.38,19c-.43,1.16.19,1.5.58,1.5h.42v.41Zm4.1-7.87-1.4,3.9H436Z" transform="translate(39.88 77.5)"/><path class="cls-6" d="M446.5,20.87v-.41h1.17V10.63H446.5v-.42h7.1v.42h-1.17v9.83h1.17v.41Z" transform="translate(39.88 77.5)"/><path class="cls-6" d="M457,20.87v-.41h.38c.67,0,.87-.76.87-1.47V11.44c-.3-.38-.54-.83-1-.83H457v-.4h5.84L467,15.92V11.4c0-.44-.47-.77-1-.77h-.31v-.42h3.17v.42h-.46c-.8,0-.79.6-.79,1.86v8.38H465l-6.22-8.55V19c0,.71.16,1.47.9,1.47h.49v.41Z" transform="translate(39.88 77.5)"/><path class="cls-6" d="M395.43,25.56c-1.8.16-2.51,2-2.86,3.51h-.48l.08-3.92h11.26l.07,3.92H403c-.36-1.51-1.07-3.35-2.86-3.51v9.83h1.4v.42H394v-.42h1.42Z" transform="translate(39.88 77.5)"/><path class="cls-6" d="M407.21,35.81v-.42h1.17V25.56h-1.17v-.41h7.1v.41h-1.17v9.83h1.17v.42Z" transform="translate(39.88 77.5)"/><path class="cls-6" d="M428.11,28.7h-.49c-.4-1.3-1.39-3.07-3-3.07-1.14,0-1.7.27-1.7,3.66v3c0,2.52.79,3,1.87,3,1.69,0,2.71-1.54,3-3.05h.47C428,34.72,426.2,36,423.77,36A5.4,5.4,0,0,1,418,30.39a5.46,5.46,0,0,1,5.6-5.47,5.56,5.56,0,0,1,2.06.41,2.32,2.32,0,0,0,.76.27.94.94,0,0,0,.46-.2l.83-.48h.4Z" transform="translate(39.88 77.5)"/><path class="cls-6" d="M431.89,35.81v-.42h1.18V25.56h-1.18v-.41h7.17v.41h-1.33v5l3.66-3.68c.88-.87.33-1.34-.83-1.34h-.47v-.41h4.84v.41h-.51a2.84,2.84,0,0,0-2,1l-1.2,1.19,4.4,7.6h.68v.42h-7v-.42h1.1l-2.7-4.75h0v4.75h1.06v.42Z" transform="translate(39.88 77.5)"/><path class="cls-6" d="M449.53,35.81v-.42h1.14V25.56h-1.14v-.41h10.32l.07,3.74h-.5c-.43-1.69-1.48-3.33-3.16-3.33h-.93v4.67h.26c.47,0,1.55-.51,1.69-2.1h.51v4.69h-.51c-.14-1.67-1.22-2.18-1.69-2.18h-.26v4.75h1c1.17,0,2.38-.86,3.23-3.64h.46L460,35.81Z" transform="translate(39.88 77.5)"/><path class="cls-6" d="M467.18,25.56c-1.8.16-2.51,2-2.86,3.51h-.48l.08-3.92h11.26l.08,3.92h-.48c-.35-1.51-1.06-3.35-2.86-3.51v9.83h1.4v.42h-7.55v-.42h1.41Z" transform="translate(39.88 77.5)"/><text class="cls-7" transform="translate(77.49 242.75)">ARRIVE</text><text class="cls-7" transform="translate(245.79 190.83)">C<tspan class="cls-8" x="7.12" y="0">L</tspan><tspan x="13.24" y="0">ASS</tspan></text><text class="cls-9" transform="translate(285.32 144.97)">C<tspan class="cls-10" x="7.19" y="0">ARROZ</tspan><tspan class="cls-11" x="43.93" y="0">Z</tspan><tspan class="cls-10" x="50.86" y="0">A/POS</tspan><tspan class="cls-12" x="84.41" y="0">T</tspan><tspan class="cls-13" x="90.53" y="0">O</tspan></text><text class="cls-14" transform="translate(53.36 274.62)">DE<tspan class="cls-15" x="14.48" y="0">P</tspan><tspan class="cls-10" x="20.5" y="0">A</tspan><tspan class="cls-16" x="28.14" y="0">R</tspan><tspan class="cls-10" x="35.1" y="0">TURE</tspan></text><path class="cls-17" d="M271.46,206.27h2.64V181.74h-2.64Zm3.72,0h1V181.74h-1Zm-6.89,0h2.09V181.74h-2.09Zm9,0h.46V181.74h-.46Zm-11.07,0h1V181.74h-1Zm23.14,0h2.09V181.74h-2.09Zm-25.23,0h1V181.74h-1Zm14.71,0h2.09V181.74h-2.09Zm4.72,0h1V181.74h-1Zm-1.55,0h.46V181.74H282Zm-44.19,0h1V181.74h-1Zm9,0h1V181.74h-1Zm14.16,0H263V181.74h-2.09Zm-12.07,0h.46V181.74h-.46Zm-9,0H242V181.74h-2.09Zm52.63,0h1V181.74h-1Zm-49.46,0h2.63V181.74h-2.63Zm12.07,0h1V181.74h-1Zm-4.72,0h2.09V181.74h-2.09Zm6.81,0h2.63V181.74h-2.63Zm-3.63,0h.46V181.74h-.46Zm32,0h2.63V181.74h-2.63Zm46.26,0h1V181.74h-1Zm2.09,0h.46V181.74H334Zm-11.07,0h1V181.74h-1Zm2.09,0h2.09V181.74H325Zm10.53,0h2.09V181.74h-2.09Zm-7.36,0h2.63V181.74h-2.63Zm21.06-24.53v24.53h1V181.74Zm-54.72,24.53h1V181.74h-1Zm45.74,0h1V181.74h-1Zm-1.55,0h.46V181.74h-.46Zm3.64,0H345V181.74h-2.63Zm3.71,0h2.09V181.74h-2.09Zm-40.47,0H306V181.74h-.46Zm-2.09,0h1V181.74h-1Zm-3.72,0h2.63V181.74h-2.63Zm21.05,0h1V181.74h-1Zm-24.22,0h2.08V181.74H296.6Zm10.52,0h2.09V181.74h-2.09Zm3.18,0h.46V181.74h-.46Zm7.35,0h2.09V181.74h-2.09Zm-3.72,0h2.63V181.74h-2.63Zm-2.09,0h1V181.74h-1Z" transform="translate(39.88 77.5)"/><path class="cls-17" d="M411.18,206.27h2.63V181.74h-2.63Zm3.72,0h1V181.74h-1Zm-6.89,0h2.09V181.74H408Zm9,0h.46V181.74H417Zm-11.07,0h1V181.74h-1Zm23.14,0h2.09V181.74h-2.09Zm-25.23,0h1V181.74h-1Zm14.71,0h2.08V181.74h-2.08Zm4.72,0h1V181.74h-1Zm-1.55,0h.46V181.74h-.46Zm-44.19,0h1V181.74h-1Zm9,0h1V181.74h-1Zm14.16,0h2.09V181.74h-2.09Zm-12.07,0h.46V181.74h-.46Zm-9,0h2.08V181.74h-2.08Zm52.63,0h1V181.74h-1Zm-49.46,0h2.63V181.74h-2.63Zm12.07,0h1V181.74h-1Zm-4.72,0h2.09V181.74h-2.09Zm6.81,0h2.63V181.74h-2.63Zm-3.63,0h.46V181.74h-.46Zm32,0H428V181.74h-2.63Zm46.26,0h1V181.74h-1Zm2.09,0h.46V181.74h-.46Zm-11.07,0h1V181.74h-1Zm2.09,0h2.09V181.74h-2.09Zm10.53,0h2.09V181.74h-2.09Zm-7.36,0h2.63V181.74h-2.63ZM489,181.74v24.53h1V181.74Zm-54.72,24.53h1V181.74h-1Zm45.74,0h1V181.74h-1Zm-1.55,0h.46V181.74h-.46Zm3.63,0h2.64V181.74h-2.64Zm3.72,0h2.09V181.74h-2.09Zm-40.48,0h.47V181.74h-.47Zm-2.08,0h1V181.74h-1Zm-3.72,0h2.63V181.74h-2.63Zm21.05,0h1V181.74h-1Zm-24.23,0h2.09V181.74h-2.09Zm10.53,0h2.09V181.74h-2.09Zm3.17,0h.47V181.74H450Zm7.36,0h2.09V181.74h-2.09Zm-3.72,0h2.63V181.74h-2.63Zm-2.09,0h1V181.74h-1Z" transform="translate(39.88 77.5)"/><text class="cls-9" transform="translate(422.82 218.42)">C<tspan class="cls-10" x="7.19" y="0">ARROZ</tspan><tspan class="cls-11" x="43.93" y="0">Z</tspan><tspan class="cls-10" x="50.86" y="0">A/POS</tspan><tspan class="cls-12" x="84.41" y="0">T</tspan><tspan class="cls-13" x="90.53" y="0">O</tspan></text><text class="cls-18" transform="translate(161.26 190.72)">D<tspan class="cls-19" x="8" y="0">A</tspan><tspan class="cls-13" x="14.75" y="0">TE</tspan></text><text class="cls-18" transform="translate(458.53 180.34)">D<tspan class="cls-19" x="8" y="0">A</tspan><tspan class="cls-13" x="14.75" y="0">TE</tspan></text><text class="cls-7" transform="translate(454.07 142.73)">C<tspan class="cls-8" x="7.12" y="0">L</tspan><tspan x="13.24" y="0">ASS</tspan></text><path class="cls-20" d="M46.53,75.79H53l-.62,1.27a.44.44,0,0,0-.35-.24H50.31l-2.63,5.4H46l2.62-5.4H46.47a1.06,1.06,0,0,0-.62.24ZM65.81,81l-.59,1.24H59l2.94-6a.52.52,0,0,0,0-.25.34.34,0,0,0,0-.2h5.61L66.85,77a.42.42,0,0,0-.34-.25H63.29l-.77,1.53h3.26l-.62,1.28a.42.42,0,0,0-.35-.24H62l-.9,1.83h4a1.1,1.1,0,0,0,.65-.21Zm31,0-.59,1.24H91.46l2.94-6a.52.52,0,0,0,0-.25.34.34,0,0,0,0-.2h1.9l-2.66,5.4H96.2a1.08,1.08,0,0,0,.62-.21ZM51.1,82.22l2.91-6A.48.48,0,0,0,54,76a.39.39,0,0,0,0-.21h3.36c.65,0,1.86,0,1.86,1.53a2.46,2.46,0,0,1-1.86,2.25l.48,2.21a.66.66,0,0,0,.31.45h-1.8l-.52-2.66H54.08L52.8,82.26H51.1Zm6.58-4.91a.52.52,0,0,0-.54-.49H55.43l-.87,1.73h1.56a1.4,1.4,0,0,0,1.56-1.24Zm19.55-1.52a.34.34,0,0,1,0,.2c0,.07,0,.18,0,.24l-2.91,6H76l3.14-6.44H77.23Zm22.7,0a.45.45,0,0,1,0,.2c0,.07,0,.18,0,.24l-2.9,6h1.69l3.15-6.44H99.93Zm-19.59,0h6.51l-.62,1.27a.44.44,0,0,0-.35-.24H84.15l-2.63,5.4H79.83l2.63-5.4H80.35a1.06,1.06,0,0,0-.62.24l.61-1.27Zm8.35,0a.8.8,0,0,1-.21.51l-5.12,5.92h1.49l1.21-1.45H89.2l0,1.45H90.8l-.35-6.43Zm-1.77,3.94L89.1,77.1l.07,2.63Zm17.86-3.94a.8.8,0,0,1-.21.51l-5.12,5.92h1.48l1.22-1.45h3.14l0,1.45h1.56l-.35-6.43ZM103,79.73l2.22-2.63.06,2.63ZM69,76.68l.2-.41a.44.44,0,0,0,.07-.24.71.71,0,0,0,0-.21h1.66l1.55,4.47,2-4a.51.51,0,0,0,.07-.24.52.52,0,0,0,0-.21H75.8l-3.18,6.41h-1.2l-1.67-4.78L67.4,82.23H66.23Z" transform="translate(39.88 77.5)"/><path class="cls-20" d="M21.34,86.89h0l-1.63,0v.59h.87a.87.87,0,0,1-.14.31.86.86,0,0,1-.73.31,1,1,0,0,1-1-1.1,1.06,1.06,0,0,1,1-1,.8.8,0,0,1,.48.14,1.06,1.06,0,0,1,.35.28l.59-.35a1.4,1.4,0,0,0-.35-.38,1.58,1.58,0,0,0-1.07-.34A1.66,1.66,0,0,0,18.05,87V87a1.57,1.57,0,0,0,1.46,1.69h.17a1.58,1.58,0,0,0,1.45-.84,2.21,2.21,0,0,0,.21-1ZM106.85,86v-.62H105v3.25h1.83V88h-1.14v-.69h1.11v-.63h-1.11V86ZM94.6,88.66l-1.31-3.25h-.76l-1.28,3.25H92l.24-.66H93.6l.24.66Zm-1.24-1.28h-.9l.45-1.28.45,1.28Zm3.35,1.28V88H95.6v-2.6h-.69V88.7h1.8Zm1.07,0V85.41h-.69v3.25Zm3.64,0-1.32-3.25h-.76l-1.28,3.25h.76l.25-.66h1.35l.24.66Zm-1.28-1.28h-.9l.45-1.28.45,1.28Zm4.33,1.28V85.41h-.66v2.15l-1.53-2.15h-.62v3.25h.66l0-2.18,1.53,2.18ZM91.42,86v-.62H89.34V86H90v2.59h.69V86Zm-4.81,1A1.66,1.66,0,0,0,85,85.34h-.1a1.7,1.7,0,1,0,0,3.39,1.63,1.63,0,0,0,1.7-1.53V87Zm-.73,0a1,1,0,0,1-.94,1h0a1,1,0,0,1-1-1,1,1,0,0,1,1-1.06,1,1,0,0,1,1,1V87ZM89,88.66V85.41H88.3v3.25ZM83.08,86v-.62H81V86h.69v2.59h.7V86Zm-1.94,2.63-1.31-3.25h-.76l-1.28,3.25h.76l.24-.66h1.35l.24.66Zm-1.25-1.28H79l.46-1.28.44,1.28ZM78,86v-.62H75.88V86h.69v2.59h.7V86Zm-6,1a1.66,1.66,0,0,0-1.63-1.7h-.1A1.7,1.7,0,1,0,72,87Zm-.72,0a1,1,0,0,1-.94,1h0a1,1,0,1,1,0-2.08,1,1,0,0,1,1,1V87Zm4.39.62c0-1-1.31-.89-1.31-1.41a.28.28,0,0,1,.29-.28h0a.61.61,0,0,1,.48.31l.45-.52a1.23,1.23,0,0,0-.93-.45,1,1,0,0,0-1,.87s0,0,0,.06c0,.56.45.83.87,1a1,1,0,0,1,.28.17.5.5,0,0,1,.14.28.39.39,0,0,1-.37.39h0a.78.78,0,0,1-.62-.38l-.45.52a1.4,1.4,0,0,0,1,.45,1,1,0,0,0,1.2-.85A1.15,1.15,0,0,0,75.67,87.65Zm-7.3,1V88H67.26v-2.6h-.69V88.7h1.8ZM61.62,87a1.57,1.57,0,0,0-.24-.87c-.38-.66-1-.69-1.69-.69H59v3.25h.76A2,2,0,0,0,61,88.38,1.93,1.93,0,0,0,61.62,87Zm-.69,0a.94.94,0,0,1-.81,1.06h-.39V86h.1a1.14,1.14,0,0,1,.76.21,1.07,1.07,0,0,1,.34.83Zm3-1v-.62H62.07v3.25h1.84V88H62.77v-.69h1.1v-.63h-1.1V86Zm2.28,2.63V88H65.08v-2.6h-.69V88.7h1.8Zm-9-2.63v-.62H55.33v3.25h1.83V88H56v-.69h1.1v-.63H56V86Zm-2.49,2.63V85.41H54v3.25Zm-1-3.25h-.76l-.8,2.32-.8-2.32h-.76l1.22,3.25h.69l1.21-3.25ZM50.48,87a1.66,1.66,0,0,0-1.63-1.7h-.1a1.7,1.7,0,0,0,0,3.4,1.63,1.63,0,0,0,1.7-1.54.86.86,0,0,1,0-.16Zm-.73,0a1,1,0,0,1-.93,1h0a1,1,0,0,1,0-2.08,1,1,0,0,1,1,1V87Zm-17.54-.62a.9.9,0,0,0-.18-.59,1.11,1.11,0,0,0-.86-.41H30v3.25h.7V87.41h.34a1.28,1.28,0,0,0,.87-.24,1.22,1.22,0,0,0,.28-.76Zm-.69,0c0,.31-.21.42-.49.42h-.31V86H31a.34.34,0,0,1,.2,0,.36.36,0,0,1,.32.38Zm4.25.62a1.66,1.66,0,0,0-1.63-1.7H34a1.7,1.7,0,0,0,0,3.4,1.62,1.62,0,0,0,1.69-1.54ZM35,87a1,1,0,0,1-.93,1h0a1,1,0,0,1,0-2.07h0a1,1,0,0,1,1,1A.13.13,0,0,1,35,87Zm4.33.24v-.62H38.19V86h1.18v-.62H37.5v3.25h.69V87.31h1.18ZM41.51,86v-.62H39.68v3.25h1.83V88H40.37v-.69h1.11v-.63H40.37V86Zm2.84,2.63-.93-1.38a1.17,1.17,0,0,0,.35-.14,1,1,0,0,0,.38-.76,1,1,0,0,0-1.25-1H42v3.25h.69V87.28l.87,1.38Zm-.9-2.25a.65.65,0,0,1-.06.24.5.5,0,0,1-.49.21h-.24V86h.24c.28,0,.55.07.55.42Zm3.46,2.25L46,87.28a1,1,0,0,0,.34-.14,1,1,0,0,0,.38-.76,1.06,1.06,0,0,0-.13-.55,1.19,1.19,0,0,0-1.11-.42h-.9v3.25h.69V87.28l.87,1.38ZM46,86.41a1.09,1.09,0,0,1-.07.24.48.48,0,0,1-.48.2h-.25V86h.25c.27,0,.55.07.55.42Zm-16.3,0a.9.9,0,0,0-.18-.59,1.16,1.16,0,0,0-.87-.42H27.53v3.26h.7V87.41h.34a.94.94,0,0,0,1.15-1Zm-.7,0c0,.31-.2.41-.48.41h-.31V86h.27a.46.46,0,0,1,.21,0,.36.36,0,0,1,.31.38Zm-4.87,2.25-.94-1.38a1.17,1.17,0,0,0,.35-.14,1,1,0,0,0,.38-.76,1,1,0,0,0-1.25-1h-.9v3.25h.69V87.28l.87,1.38Zm-.91-2.25a.71.71,0,0,1-.06.24.5.5,0,0,1-.49.2h-.24V86h.25c.31,0,.55.07.54.42ZM27,87.2V85.41h-.69v2c0,.42-.18.66-.59.66a.59.59,0,0,1-.52-.24.68.68,0,0,1-.1-.48v-2h-.7v2a1.11,1.11,0,0,0,.11.59,1.25,1.25,0,0,0,1.21.72,1.3,1.3,0,0,0,1.07-.48,1.68,1.68,0,0,0,.21-1Z" transform="translate(39.88 77.5)"/><path class="cls-21" d="M30.75,70.11l-7,.69-4.71,9.35c3.74,0,5.65-.35,7.82-3.46A63.05,63.05,0,0,0,30.75,70.11Z" transform="translate(39.88 77.5)"/><path class="cls-21" d="M49.68,61.46l.56-1H35.5c-5,0-7.55,1.69-9.11,4.81l-1.21,2.46h6.71c2.36-4.57,5.27-6.13,12.36-6.23Z" transform="translate(39.88 77.5)"/><path class="cls-21" d="M49.23,62.46c-9,.07-10.48,1.56-12.49,5.23h9.93Z" transform="translate(39.88 77.5)"/><path class="cls-22" d="M39.72,75.33a8,8,0,0,1-6.51,6.51,24,24,0,0,1-3.28.34c-1.32,0-11.87,0-11.87,0l.45-.94,4.57,0A36.71,36.71,0,0,0,27,81a6.53,6.53,0,0,0,5.77-4.84l.8-2.7a4.89,4.89,0,0,1,4.77-4L46,69l-.38.76-2.35.13a3.66,3.66,0,0,0-3.36,3.26Z" transform="translate(39.88 77.5)"/></g></g></svg>